<svg xmlns="http://www.w3.org/2000/svg" viewBox="0 0 800 450"><rect width="800" height="450" fill="#f5f7f9"/><g transform="translate(95 70)"><rect x="0" y="50" width="330" height="235" rx="24" fill="#2f3b45"/><rect x="28" y="78" width="78" height="180" rx="8" fill="#4c5f6c"/><rect x="118" y="78" width="78" height="180" rx="8" fill="#587180"/><rect x="208" y="78" width="78" height="180" rx="8" fill="#41515d"/><g fill="#53c27d"><circle cx="48" cy="105" r="7"/><circle cx="138" cy="105" r="7"/><circle cx="228" cy="105" r="7"/></g><rect x="380" y="15" width="260" height="210" rx="22" fill="#202b33"/><rect x="402" y="37" width="216" height="150" rx="12" fill="#2e7bb4"/><g fill="#dce9f1"><rect x="425" y="65" width="65" height="18" rx="5"/><rect x="425" y="100" width="120" height="14" rx="4"/><rect x="425" y="128" width="90" height="14" rx="4"/></g><rect x="430" y="250" width="160" height="38" rx="12" fill="#cfd7dd"/><path d="M330 170h50" stroke="#6a7c88" stroke-width="12"/></g></svg>