<svg xmlns="http://www.w3.org/2000/svg" viewBox="0 0 720 420"><defs><linearGradient id="b" x1="0" y1="0" x2="1" y2="1"><stop stop-color="#f7f9fb"/><stop offset="1" stop-color="#dce5ed"/></linearGradient><linearGradient id="m" x1="0" y1="0" x2="1" y2="1"><stop stop-color="#fff"/><stop offset=".42" stop-color="#b8c5d1"/><stop offset="1" stop-color="#65798d"/></linearGradient><filter id="s"><feDropShadow dy="16" stdDeviation="16" flood-color="#06172d" flood-opacity=".22"/></filter></defs><rect width="720" height="420" rx="28" fill="url(#b)"/><g transform="translate(74 76)" filter="url(#s)"><rect x="25" y="88" width="176" height="126" rx="15" fill="url(#m)"/><circle cx="112" cy="151" r="42" fill="#0a2541"/><circle cx="112" cy="151" r="22" fill="#dfe7ed"/><circle cx="112" cy="151" r="70" fill="none" stroke="#6f8396" stroke-width="10"/><rect x="250" y="36" width="86" height="220" rx="18" fill="url(#m)"/><circle cx="293" cy="146" r="29" fill="#0a2541"/><path d="M390 200h170v44H390z" fill="url(#m)"/><circle cx="420" cy="222" r="18" fill="#0a2541"/><circle cx="520" cy="222" r="14" fill="#0a2541"/><path d="M410 104h120l30 54-30 42H410l-30-42z" fill="url(#m)"/><circle cx="470" cy="152" r="26" fill="#0a2541"/></g><path d="M90 338h540" stroke="#b3c2cf" stroke-width="8" stroke-linecap="round"/></svg>