<svg xmlns="http://www.w3.org/2000/svg" viewBox="0 0 720 420"><defs><linearGradient id="b" x1="0" y1="0" x2="1" y2="1"><stop stop-color="#eef4f9"/><stop offset="1" stop-color="#d8e3ed"/></linearGradient><linearGradient id="p" x1="0" y1="0" x2="1" y2="1"><stop stop-color="#fff"/><stop offset="1" stop-color="#c7d3df"/></linearGradient><filter id="s"><feDropShadow dy="15" stdDeviation="14" flood-color="#071a36" flood-opacity=".18"/></filter></defs><rect width="720" height="420" rx="28" fill="url(#b)"/><g transform="translate(90 54)" filter="url(#s)"><rect x="35" y="35" width="390" height="260" rx="22" fill="#0c2743"/><path d="M80 80v180M380 80v180M80 80h300M80 260h300" stroke="#758ca1" stroke-width="12"/><rect x="195" y="92" width="76" height="40" rx="8" fill="#dfe7ee"/><path d="M215 132h36l-8 40h-20z" fill="#f4b000"/><rect x="118" y="240" width="225" height="18" rx="9" fill="#9aabb9"/><path d="M150 235l34-92h94l38 92z" fill="url(#p)"/><path d="M175 210h116M184 188h98M194 166h78" stroke="#94a7b7" stroke-width="6" opacity=".75"/></g><circle cx="575" cy="105" r="62" fill="#f4b000" opacity=".12"/><path d="M525 319c42-52 84-79 126-81" fill="none" stroke="#f4b000" stroke-width="10" stroke-linecap="round"/><circle cx="520" cy="322" r="14" fill="#f4b000"/></svg>